<?xml version="1.0" encoding="UTF-8" standalone="no"?>
<svg style="enable-background:new" xmlns="http://www.w3.org/2000/svg" height="1024" width="1024" version="1.1" xmlns:xlink="http://www.w3.org/1999/xlink" viewBox="0 0 1024 1024">
 <defs>
  <radialGradient id="i" spreadMethod="reflect" gradientUnits="userSpaceOnUse" cy="256.7" cx="240" gradientTransform="matrix(.4029 -.7875 .54 .2762 264.5 616.8)" r="129.3">
   <stop offset="0"/>
   <stop stop-opacity="0" offset="1"/>
  </radialGradient>
  <linearGradient id="l" x1="-126.6" gradientUnits="userSpaceOnUse" y1="281" gradientTransform="matrix(.5 0 0 .5 608.8 354.4)" x2="-251.8" y2="281">
   <stop stop-color="#ef5145" stop-opacity="0" offset="0"/>
   <stop stop-color="#ef5145" offset="1"/>
  </linearGradient>
  <linearGradient id="o" x1="256" xlink:href="#a" gradientUnits="userSpaceOnUse" x2="256" gradientTransform="matrix(.9555 0 0 .9555 271.2 360.4)" y1="232" y2="400"/>
  <linearGradient id="a">
   <stop stop-color="#fed965" offset="0"/>
   <stop stop-color="#fed965" stop-opacity="0" offset="1"/>
  </linearGradient>
  <linearGradient id="n" x1="256" xlink:href="#a" gradientUnits="userSpaceOnUse" y1="232" gradientTransform="matrix(.9555 0 0 .9555 233 360.4)" x2="256" y2="472"/>
  <linearGradient id="m" x1="256" xlink:href="#a" gradientUnits="userSpaceOnUse" y1="200" gradientTransform="matrix(.9555 0 0 .9555 194.8 360.4)" x2="256" y2="400"/>
  <linearGradient id="k" x1="256" xlink:href="#a" gradientUnits="userSpaceOnUse" y1="152" gradientTransform="matrix(.9555 0 0 .9555 156.6 360.4)" x2="256" y2="368"/>
  <linearGradient id="j" x1="256" xlink:href="#a" gradientUnits="userSpaceOnUse" y1="112" gradientTransform="matrix(.9555 0 0 .9555 118.4 360.4)" x2="256" y2="408"/>
  <linearGradient id="c" x1="256" xlink:href="#a" gradientUnits="userSpaceOnUse" y1="160" gradientTransform="matrix(.9555 0 0 .9555 80.14 360.4)" x2="256" y2="312"/>
  <linearGradient id="d" x1="256" xlink:href="#a" gradientUnits="userSpaceOnUse" y1="160" gradientTransform="matrix(.9555 0 0 .9555 309.4 360.4)" x2="256" y2="544"/>
  <linearGradient id="e" x1="256" xlink:href="#a" gradientUnits="userSpaceOnUse" y1="208" gradientTransform="matrix(.9555 0 0 .9555 347.7 360.4)" x2="256" y2="456"/>
  <linearGradient id="f" x1="256" xlink:href="#a" gradientUnits="userSpaceOnUse" y1="176" gradientTransform="matrix(.9555 0 0 .9555 385.9 360.4)" x2="256" y2="368"/>
  <linearGradient id="g" x1="256" xlink:href="#a" gradientUnits="userSpaceOnUse" y1="185.9" gradientTransform="matrix(.9555 0 0 .9555 424.1 360.4)" x2="256" y2="376"/>
  <linearGradient id="h" x1="256" xlink:href="#a" gradientUnits="userSpaceOnUse" y1="128" gradientTransform="matrix(.9555 0 0 .9555 462.3 360.4)" x2="256" y2="352"/>
  <linearGradient id="p" x1="288" xlink:href="#b" gradientUnits="userSpaceOnUse" x2="288" y1="296" y2="72"/>
  <linearGradient id="b">
   <stop stop-color="#ff9169" offset="0"/>
   <stop stop-color="#ff9069" stop-opacity="0" offset="1"/>
  </linearGradient>
  <linearGradient id="q" x1="216" xlink:href="#b" gradientUnits="userSpaceOnUse" x2="218" y1="326.1" y2="-32"/>
  <linearGradient id="r" x1="177.6" xlink:href="#b" gradientUnits="userSpaceOnUse" x2="176" y1="264" y2="136"/>
  <linearGradient id="s" x1="136" xlink:href="#b" gradientUnits="userSpaceOnUse" x2="136" y1="312" y2="80"/>
  <linearGradient id="t" x1="96.8" xlink:href="#b" gradientUnits="userSpaceOnUse" x2="96.8" y1="352" y2="162.4"/>
  <linearGradient id="u" x1="56" xlink:href="#b" gradientUnits="userSpaceOnUse" x2="56" y1="360" y2="184"/>
  <linearGradient id="v" x1="296" xlink:href="#b" gradientUnits="userSpaceOnUse" x2="296" y1="280" y2="72"/>
  <linearGradient id="w" x1="376" xlink:href="#b" gradientUnits="userSpaceOnUse" x2="376" y1="304" y2="96"/>
  <linearGradient id="x" x1="416" xlink:href="#b" gradientUnits="userSpaceOnUse" x2="416" y1="336" y2="128"/>
  <linearGradient id="y" x1="456" xlink:href="#b" gradientUnits="userSpaceOnUse" x2="456" y1="368" y2="192"/>
 </defs>
 <g opacity=".7" style="enable-background:new" transform="matrix(.9555 0 0 .9555 271.2 146.4)">
  <path opacity="1" style="color:#000000;enable-background:accumulate" d="m272 72v16h32v-16zm0 24v16h32v-16zm0 24v16h32v-16zm0 24v16h32v-16zm0 24v16h32v-16zm0 24v16h32v-16zm0 24v16h32v-16zm0 24v16h32v-16zm0 24v16h32v-16z" transform="translate(-32,-32)" fill="url(#p)"/>
  <path opacity="1" style="color:#000000;enable-background:accumulate" d="m200 40v16h32v-16zm0 24v16h32v-16zm0 24v16h32v-16zm0 24v16h32v-16zm0 24v16h32v-16zm0 24v16h32v-16zm0 24v16h32v-16zm0 24v16h32v-16zm0 24v16h32v-16z" fill="url(#q)"/>
  <path opacity="1" style="color:#000000;enable-background:accumulate" d="m160 40v16h32v-16zm0 24v16h32v-16zm0 24v16h32v-16zm0 24v16h32v-16zm0 24v16h32v-16zm0 24v16h32v-16zm0 24v16h32v-16zm0 24v16h32v-16zm0 24v16h32v-16z" fill="url(#r)"/>
  <path opacity="1" style="color:#000000;enable-background:accumulate" d="m120 40v16h32v-16zm0 24v16h32v-16zm0 24v16h32v-16zm0 24v16h32v-16zm0 24v16h32v-16zm0 24v16h32v-16zm0 24v16h32v-16zm0 24v16h32v-16zm0 24v16h32v-16z" fill="url(#s)"/>
  <path opacity="1" style="color:#000000;enable-background:accumulate" d="m80 40v16h32v-16zm0 24v16h32v-16zm0 24v16h32v-16zm0 24v16h32v-16zm0 24v16h32v-16zm0 24v16h32v-16zm0 24v16h32v-16zm0 24v16h32v-16zm0 24v16h32v-16z" fill="url(#t)"/>
  <path opacity="1" style="color:#000000;enable-background:accumulate" d="m40 40v16h32v-16zm0 24v16h32v-16zm0 24v16h32v-16zm0 24v16h32v-16zm0 24v16h32v-16zm0 24v16h32v-16zm0 24v16h32v-16zm0 24v16h32v-16zm0 24v16h32v-16z" fill="url(#u)"/>
  <path opacity="1" style="color:#000000;enable-background:accumulate" d="m280 40v16h32v-16zm0 24v16h32v-16zm0 24v16h32v-16zm0 24v16h32v-16zm0 24v16h32v-16zm0 24v16h32v-16zm0 24v16h32v-16zm0 24v16h32v-16zm0 24v16h32v-16z" fill="url(#v)"/>
  <path opacity="1" style="color:#000000;enable-background:accumulate" d="m360 40v16h32v-16zm0 24v16h32v-16zm0 24v16h32v-16zm0 24v16h32v-16zm0 24v16h32v-16zm0 24v16h32v-16zm0 24v16h32v-16zm0 24v16h32v-16zm0 24v16h32v-16z" fill="url(#w)"/>
  <path opacity="1" style="color:#000000;enable-background:accumulate" d="m400 40v16h32v-16zm0 24v16h32v-16zm0 24v16h32v-16zm0 24v16h32v-16zm0 24v16h32v-16zm0 24v16h32v-16zm0 24v16h32v-16zm0 24v16h32v-16zm0 24v16h32v-16z" fill="url(#x)"/>
  <path opacity="1" style="color:#000000;enable-background:accumulate" d="m440 40v16h32v-16zm0 24v16h32v-16zm0 24v16h32v-16zm0 24v16h32v-16zm0 24v16h32v-16zm0 24v16h32v-16zm0 24v16h32v-16zm0 24v16h32v-16zm0 24v16h32v-16z" fill="url(#y)"/>
 </g>
 <path opacity=".3736" style="color:#000000;enable-background:accumulate" d="m500.5 612.7v15.29h30.57v-15.29zm0 22.93v15.29h30.57v-15.29zm0 22.93v15.29h30.57v-15.29zm0 22.93v15.29h30.57v-15.29zm0 22.93v15.29h30.57v-15.29zm0 22.93v15.29h30.57v-15.29zm0 22.93v15.29h30.57v-15.29zm0 22.93v15.29h30.57v-15.29zm0 22.93v15.29h30.57v-15.29z" stroke-width=".9555" fill="url(#o)"/>
 <path opacity=".3736" style="color:#000000;enable-background:accumulate" d="m462.3 612.7v15.29h30.57v-15.29zm0 22.93v15.29h30.57v-15.29zm0 22.93v15.29h30.57v-15.29zm0 22.93v15.29h30.57v-15.29zm0 22.93v15.29h30.57v-15.29zm0 22.93v15.29h30.57v-15.29zm0 22.93v15.29h30.57v-15.29zm0 22.93v15.29h30.57v-15.29zm0 22.93v15.29h30.57v-15.29z" stroke-width=".9555" fill="url(#n)"/>
 <path opacity=".3736" style="color:#000000;enable-background:accumulate" d="m424.1 612.7v15.29h30.57v-15.29zm0 22.93v15.29h30.57v-15.29zm0 22.93v15.29h30.57v-15.29zm0 22.93v15.29h30.57v-15.29zm0 22.93v15.29h30.57v-15.29zm0 22.93v15.29h30.57v-15.29zm0 22.93v15.29h30.57v-15.29zm0 22.93v15.29h30.57v-15.29zm0 22.93v15.29h30.57v-15.29z" stroke-width=".9555" fill="url(#m)"/>
 <path opacity=".3736" style="color:#000000;enable-background:accumulate" d="m385.9 612.7v15.29h30.57v-15.29zm0 22.93v15.29h30.57v-15.29zm0 22.93v15.29h30.57v-15.29zm0 22.93v15.29h30.57v-15.29zm0 22.93v15.29h30.57v-15.29zm0 22.93v15.29h30.57v-15.29zm0 22.93v15.29h30.57v-15.29zm0 22.93v15.29h30.57v-15.29zm0 22.93v15.29h30.57v-15.29z" stroke-width=".9555" fill="url(#k)"/>
 <path opacity=".3736" style="color:#000000;enable-background:accumulate" d="m347.7 612.7v15.29h30.57v-15.29zm0 22.93v15.29h30.57v-15.29zm0 22.93v15.29h30.57v-15.29zm0 22.93v15.29h30.57v-15.29zm0 22.93v15.29h30.57v-15.29zm0 22.93v15.29h30.57v-15.29zm0 22.93v15.29h30.57v-15.29zm0 22.93v15.29h30.57v-15.29zm0 22.93v15.29h30.57v-15.29z" stroke-width=".9555" fill="url(#j)"/>
 <path opacity=".3736" style="color:#000000;enable-background:accumulate" d="m309.4 612.7v15.29h30.57v-15.29zm0 22.93v15.29h30.57v-15.29zm0 22.93v15.29h30.57v-15.29zm0 22.93v15.29h30.57v-15.29zm0 22.93v15.29h30.57v-15.29zm0 22.93v15.29h30.57v-15.29zm0 22.93v15.29h30.57v-15.29zm0 22.93v15.29h30.57v-15.29zm0 22.93v15.29h30.57v-15.29z" stroke-width=".9555" fill="url(#c)"/>
 <path opacity=".3736" style="color:#000000;enable-background:accumulate" d="m538.8 612.7v15.29h30.57v-15.29zm0 22.93v15.29h30.57v-15.29zm0 22.93v15.29h30.57v-15.29zm0 22.93v15.29h30.57v-15.29zm0 22.93v15.29h30.57v-15.29zm0 22.93v15.29h30.57v-15.29zm0 22.93v15.29h30.57v-15.29zm0 22.93v15.29h30.57v-15.29zm0 22.93v15.29h30.57v-15.29z" stroke-width=".9555" fill="url(#d)"/>
 <path opacity=".3736" style="color:#000000;enable-background:accumulate" d="m577 612.7v15.29h30.57v-15.29zm0 22.93v15.29h30.57v-15.29zm0 22.93v15.29h30.57v-15.29zm0 22.93v15.29h30.57v-15.29zm0 22.93v15.29h30.57v-15.29zm0 22.93v15.29h30.57v-15.29zm0 22.93v15.29h30.57v-15.29zm0 22.93v15.29h30.57v-15.29zm0 22.93v15.29h30.57v-15.29z" stroke-width=".9555" fill="url(#e)"/>
 <path opacity=".3736" style="color:#000000;enable-background:accumulate" d="m615.2 612.7v15.29h30.57v-15.29zm0 22.93v15.29h30.57v-15.29zm0 22.93v15.29h30.57v-15.29zm0 22.93v15.29h30.57v-15.29zm0 22.93v15.29h30.57v-15.29zm0 22.93v15.29h30.57v-15.29zm0 22.93v15.29h30.57v-15.29zm0 22.93v15.29h30.57v-15.29zm0 22.93v15.29h30.57v-15.29z" stroke-width=".9555" fill="url(#f)"/>
 <path opacity=".3736" style="color:#000000;enable-background:accumulate" d="m653.4 612.7v15.29h30.57v-15.29zm0 22.93v15.29h30.57v-15.29zm0 22.93v15.29h30.57v-15.29zm0 22.93v15.29h30.57v-15.29zm0 22.93v15.29h30.57v-15.29zm0 22.93v15.29h30.57v-15.29zm0 22.93v15.29h30.57v-15.29zm0 22.93v15.29h30.57v-15.29zm0 22.93v15.29h30.57v-15.29z" stroke-width=".9555" fill="url(#g)"/>
 <path opacity=".3736" style="color:#000000;enable-background:accumulate" d="m691.6 612.7v15.29h30.57v-15.29zm0 22.93v15.29h30.57v-15.29zm0 22.93v15.29h30.57v-15.29zm0 22.93v15.29h30.57v-15.29zm0 22.93v15.29h30.57v-15.29zm0 22.93v15.29h30.57v-15.29zm0 22.93v15.29h30.57v-15.29zm0 22.93v15.29h30.57v-15.29zm0 22.93v15.29h30.57v-15.29z" stroke-width=".9555" fill="url(#h)"/>
 <g stroke-width=".5" transform="matrix(1.911 0 0 1.911 -469.9 -453.7)">
  <path opacity=".3" style="enable-background:new" d="m557 420.3c-1.983-0.022-4.62 0.288-8.13 0.815l-59.85 9.385c-14.09 3.001-14.09 3.934-14.09 15.84v97.55c-1.04-0.728-2.066-1.46-3.14-2.181v0.004c-4.478-3-9.25-5.135-15.66-5.135-8.03 0-12.82 3.074-15.72 7.125-2.898 4.049-3.86 9.155-3.86 13.1 0 4.758 1.626 9.835 5.15 13.7 3.524 3.87 8.94 6.58 16.73 6.58 8.795 0 14.98-2.458 18.48-7.255 2.754-3.777 4.276-8.82 4.819-15.04v-0.0174c0.0761-0.755 0.1308-1.53 0.1788-2.328 0.0738-1.23 0.0585-3.532 0.0585-3.532v-74.05c0-10.56-0.00049-11.2 14.1-13.6l45.75-6.97c14.12-1.848 14.12-0.554 14.12 7.37v68.05c-1.04-0.728-2.066-1.46-3.14-2.181v0.004c-4.478-3-9.25-5.135-15.66-5.135-8.03 0-12.82 3.074-15.72 7.125-2.898 4.049-3.86 9.155-3.86 13.1 0 4.758 1.626 9.835 5.15 13.7 3.524 3.87 8.94 6.58 16.73 6.58 8.795 0 14.98-2.458 18.48-7.255 2.754-3.777 4.276-8.82 4.819-15.04v-0.0174c0.0761-0.755 0.1308-1.53 0.1788-2.328 0.0738-1.23 0.0585-3.532 0.0585-3.532v-102.1c0-9.27-0.0601-12.34-6.01-12.4z" fill="url(#i)"/>
  <path style="enable-background:new" d="m554 423.5c-1.878-0.0209-4.377 0.2729-7.7 0.7725l-56.7 8.895c-13.35 2.843-13.35 3.726-13.35 15v92.45c-0.985-0.6895-1.957-1.384-2.975-2.066v0.004c-4.242-2.842-8.76-4.865-14.84-4.865-7.605 0-12.14 2.912-14.89 6.75-2.746 3.836-3.656 8.67-3.656 12.41 0 4.507 1.54 9.315 4.878 12.98 3.338 3.666 8.47 6.235 15.85 6.235 8.335 0 14.2-2.328 17.51-6.87 2.609-3.578 4.05-8.355 4.565-14.26v-0.0165c0.0721-0.7155 0.1239-1.449 0.1694-2.206 0.0699-1.166 0.0554-3.346 0.0554-3.346v-70.15c0-10.01-0.0005-10.61 13.36-12.89l43.34-6.605c13.38-1.751 13.38-0.5245 13.38 6.985v64.5c-0.985-0.6895-1.957-1.384-2.975-2.066v0.004c-4.242-2.842-8.76-4.865-14.84-4.865-7.605 0-12.14 2.912-14.89 6.75-2.746 3.836-3.656 8.67-3.656 12.41 0 4.507 1.54 9.315 4.878 12.98 3.338 3.666 8.47 6.235 15.85 6.235 8.335 0 14.2-2.328 17.51-6.87 2.609-3.578 4.05-8.355 4.565-14.26v-0.0165c0.072-0.7155 0.124-1.449 0.1694-2.206 0.0699-1.166 0.0554-3.346 0.0554-3.346v-96.75c0-8.78-0.057-11.69-5.695-11.75z" fill="#fef1f1"/>
  <path opacity=".3" style="enable-background:new" d="m477.8 437.6c-1.592 1.988-1.594 5.02-1.594 10.57v92.45c-0.985-0.6895-1.956-1.384-2.974-2.066v0.004c-4.242-2.842-8.76-4.865-14.84-4.865-7.605 0-12.14 2.912-14.89 6.75-2.746 3.836-3.656 8.67-3.656 12.41 0 4.507 1.54 9.315 4.878 12.98 3.338 3.666 8.47 6.235 15.85 6.235 8.335 0 14.2-2.329 17.51-6.875 2.609-3.578 4.05-8.355 4.566-14.26v-0.0157c0.0721-0.7155 0.1234-1.449 0.169-2.206 0.0699-1.166 0.0557-3.346 0.0557-3.346v-70.15c0-10.01-0.0005-10.61 13.36-12.89l43.34-6.605c13.38-1.751 13.38-0.5255 13.38 6.98v64.5c-0.985-0.6895-1.956-1.383-2.974-2.066v0.004c-4.242-2.842-8.76-4.865-14.84-4.865-7.605 0-12.14 2.912-14.89 6.75-2.746 3.836-3.656 8.67-3.656 12.41 0 4.507 1.54 9.315 4.878 12.98 3.338 3.666 8.47 6.235 15.85 6.235 8.335 0 14.2-2.328 17.51-6.87 2.609-3.578 4.05-8.355 4.566-14.26v-0.0166c0.072-0.7155 0.1234-1.449 0.169-2.206 0.0699-1.166 0.0557-3.346 0.0557-3.346v-76.45z" fill="url(#l)"/>
 </g>
 <path style="enable-background:new" stroke-width=".9555" fill="#fff" d="m588.8 355.5c-3.59-0.0399-8.364 0.5219-14.71 1.476l-108.3 17c-25.51 5.433-25.51 7.122-25.51 28.67v1.911c0-21.56 0.00055-23.25 25.51-28.67l108.3-17c6.35-0.9543 11.12-1.516 14.71-1.476 10.77 0.12 10.87 5.678 10.87 22.45v-1.911c0-16.78-0.1082-22.34-10.87-22.45zm-35.91 185c-14.53 0-23.2 5.565-28.45 12.9-5.246 7.33-6.986 16.57-6.986 23.71 0 0.3772 0.0134 0.7573 0.0243 1.136 0.1194-7.029 1.899-15.86 6.962-22.94 5.246-7.33 13.91-12.9 28.45-12.9 11.6 0.00004 20.24 3.866 28.35 9.297v-0.008c1.945 1.303 3.802 2.629 5.684 3.947v-1.911c-1.882-1.318-3.739-2.643-5.684-3.947v0.008c-8.105-5.432-16.74-9.297-28.35-9.297zm-146.7 25.5c-14.53 0-23.21 5.565-28.45 12.9-5.246 7.33-6.985 16.57-6.985 23.71 0 0.377 0.0134 0.7556 0.0243 1.135 0.1198-7.029 1.898-15.86 6.96-22.94 5.246-7.33 13.92-12.9 28.45-12.9 11.6 0.00002 20.24 3.866 28.35 9.297v-0.008c1.945 1.303 3.802 2.631 5.684 3.949v-1.911c-1.882-1.318-3.739-2.645-5.684-3.949v0.008c-8.105-5.432-16.74-9.297-28.35-9.297z"/>
</svg>
